<?xml version="1.0" encoding="UTF-8"?>
<!DOCTYPE svg PUBLIC "-//W3C//DTD SVG 1.1//EN" "http://www.w3.org/Graphics/SVG/1.1/DTD/svg11.dtd">
<svg xmlns="http://www.w3.org/2000/svg" version="1.1" width="4000px" height="2696px" style="shape-rendering:geometricPrecision; text-rendering:geometricPrecision; image-rendering:optimizeQuality; fill-rule:evenodd; clip-rule:evenodd" xmlns:xlink="http://www.w3.org/1999/xlink">
<g><path style="opacity:0.994" fill="#be00ff" d="M 2297.5,-0.5 C 2301.5,-0.5 2305.5,-0.5 2309.5,-0.5C 2311.61,0.468218 2313.94,0.801552 2316.5,0.5C 2327.5,30.5 2338.5,60.5 2349.5,90.5C 2320.85,92.2648 2293.18,88.2648 2266.5,78.5C 2258.3,55.8972 2250.3,33.2305 2242.5,10.5C 2248.42,7.46966 2254.75,5.303 2261.5,4C 2273.56,1.79138 2285.56,0.291381 2297.5,-0.5 Z"/></g>
<g><path style="opacity:0.989" fill="#c300ff" d="M 2316.5,0.5 C 2341.02,2.3707 2364.69,7.8707 2387.5,17C 2399.16,22.0762 2409.32,29.2429 2418,38.5C 2425.33,53.3044 2422.17,65.4711 2408.5,75C 2390.24,85.3163 2370.57,90.4829 2349.5,90.5C 2338.5,60.5 2327.5,30.5 2316.5,0.5 Z"/></g>
<g><path style="opacity:0.993" fill="#ab00ff" d="M 2053.5,9.5 C 2061.19,30.2368 2068.85,50.9035 2076.5,71.5C 2050.68,87.9945 2022.35,97.3279 1991.5,99.5C 1982.5,74.1667 1973.5,48.8333 1964.5,23.5C 1993.23,12.6198 2022.89,7.95314 2053.5,9.5 Z"/></g>
<g><path style="opacity:0.98" fill="#af00ff" d="M 2053.5,9.5 C 2069.12,9.48591 2083.45,13.6526 2096.5,22C 2103.97,31.3239 2104.47,41.1572 2098,51.5C 2092.57,60.0962 2085.41,66.7629 2076.5,71.5C 2068.85,50.9035 2061.19,30.2368 2053.5,9.5 Z"/></g>
<g><path style="opacity:0.979" fill="#ba00ff" d="M 2242.5,10.5 C 2250.3,33.2305 2258.3,55.8972 2266.5,78.5C 2247.75,72.8912 2233.25,61.8912 2223,45.5C 2218.39,33.5378 2221.23,23.7044 2231.5,16C 2234.91,13.6284 2238.58,11.7951 2242.5,10.5 Z"/></g>
<g><path style="opacity:0.987" fill="#a500ff" d="M 1964.5,23.5 C 1973.5,48.8333 1982.5,74.1667 1991.5,99.5C 1972.02,102.561 1952.69,101.727 1933.5,97C 1925.02,94.5101 1917.52,90.3434 1911,84.5C 1903.67,74.8333 1903.67,65.1667 1911,55.5C 1926.23,40.6304 1944.06,29.9637 1964.5,23.5 Z"/></g>
<g><path style="opacity:0.982" fill="#9800ff" d="M 1739.5,140.5 C 1733.64,124.915 1727.97,109.248 1722.5,93.5C 1741.77,82.0353 1762.43,74.202 1784.5,70C 1806.8,66.1263 1811.97,73.6263 1800,92.5C 1783.15,112.677 1762.98,128.677 1739.5,140.5 Z"/></g>
<g><path style="opacity:0.985" fill="#9300ff" d="M 1722.5,93.5 C 1727.97,109.248 1733.64,124.915 1739.5,140.5C 1717.46,152.516 1694.12,161.183 1669.5,166.5C 1666.01,155.547 1662.01,144.88 1657.5,134.5C 1677.81,118.891 1699.48,105.225 1722.5,93.5 Z"/></g>
<g><path style="opacity:0.968" fill="#8e00ff" d="M 1657.5,134.5 C 1662.01,144.88 1666.01,155.547 1669.5,166.5C 1661.86,168.463 1654.19,168.63 1646.5,167C 1641.92,165.749 1639.58,162.749 1639.5,158C 1642.28,147.719 1648.28,139.886 1657.5,134.5 Z"/></g>
<g><path style="opacity:0.997" fill="#be00ff" d="M 2371.5,151.5 C 2388.32,197.98 2405.32,244.314 2422.5,290.5C 2401.81,305.728 2378.48,313.395 2352.5,313.5C 2332.11,258.658 2312.11,203.658 2292.5,148.5C 2319.07,142.472 2345.4,143.472 2371.5,151.5 Z"/></g>
<g><path style="opacity:0.994" fill="#b800ff" d="M 2292.5,148.5 C 2312.11,203.658 2332.11,258.658 2352.5,313.5C 2315.14,315.322 2281.81,304.822 2252.5,282C 2248.63,278.298 2244.96,274.464 2241.5,270.5C 2235.6,251.797 2228.93,233.464 2221.5,215.5C 2224.14,196.059 2233.14,180.225 2248.5,168C 2261.79,158.523 2276.46,152.023 2292.5,148.5 Z"/></g>
<g><path style="opacity:0.988" fill="#c200ff" d="M 2371.5,151.5 C 2398.45,159.643 2420.61,174.643 2438,196.5C 2456.13,223.456 2455.8,250.122 2437,276.5C 2432.96,282.043 2428.13,286.709 2422.5,290.5C 2405.32,244.314 2388.32,197.98 2371.5,151.5 Z"/></g>
<g><path style="opacity:0.996" fill="#d100ff" d="M 2672.5,187.5 C 2691.1,240.312 2710.1,292.979 2729.5,345.5C 2685.86,348.001 2647.86,334.668 2615.5,305.5C 2604.54,274.272 2593.2,243.272 2581.5,212.5C 2588.15,197.697 2599.48,188.53 2615.5,185C 2628.05,182.575 2640.72,181.908 2653.5,183C 2660.18,183.565 2666.51,185.065 2672.5,187.5 Z"/></g>
<g><path style="opacity:0.991" fill="#d600ff" d="M 2672.5,187.5 C 2709.32,198.487 2739.48,219.153 2763,249.5C 2770.76,260.026 2776.1,271.692 2779,284.5C 2781.87,320.469 2765.37,340.803 2729.5,345.5C 2710.1,292.979 2691.1,240.312 2672.5,187.5 Z"/></g>
<g><path style="opacity:0.987" fill="#9100ff" d="M 1720.5,305.5 C 1708.11,272.658 1696.11,239.658 1684.5,206.5C 1701.31,203.096 1716.98,205.929 1731.5,215C 1740.98,223.1 1745.65,233.433 1745.5,246C 1743.56,268.695 1735.22,288.528 1720.5,305.5 Z"/></g>
<g><path style="opacity:0.994" fill="#8c00ff" d="M 1684.5,206.5 C 1696.11,239.658 1708.11,272.658 1720.5,305.5C 1700.71,330.577 1675.71,348.577 1645.5,359.5C 1631.3,320.915 1617.3,282.248 1603.5,243.5C 1624.05,228.891 1646.38,217.391 1670.5,209C 1675.1,207.714 1679.76,206.881 1684.5,206.5 Z"/></g>
<g><path style="opacity:0.965" fill="#cd00ff" d="M 2581.5,212.5 C 2593.2,243.272 2604.54,274.272 2615.5,305.5C 2592.4,286.475 2579.74,261.975 2577.5,232C 2577,224.988 2578.33,218.488 2581.5,212.5 Z"/></g>
<g><path style="opacity:0.919" fill="#b400ff" d="M 2221.5,215.5 C 2228.93,233.464 2235.6,251.797 2241.5,270.5C 2227.35,255.06 2220.68,236.727 2221.5,215.5 Z"/></g>
<g><path style="opacity:0.994" fill="#8600ff" d="M 1603.5,243.5 C 1617.3,282.248 1631.3,320.915 1645.5,359.5C 1619.76,368.756 1593.76,369.756 1567.5,362.5C 1557.64,336.243 1547.97,309.91 1538.5,283.5C 1561.22,271.753 1582.89,258.419 1603.5,243.5 Z"/></g>
<g><path style="opacity:0.99" fill="#8003ff" d="M 1538.5,283.5 C 1547.97,309.91 1557.64,336.243 1567.5,362.5C 1554.4,357.635 1540.9,354.301 1527,352.5C 1510.58,353.584 1495.75,358.917 1482.5,368.5C 1474.78,346.055 1466.78,323.721 1458.5,301.5C 1464.87,297.541 1471.87,295.041 1479.5,294C 1491.21,293.888 1502.88,293.221 1514.5,292C 1522.63,289.458 1530.63,286.625 1538.5,283.5 Z"/></g>
<g><path style="opacity:0.991" fill="#7d07ff" d="M 1458.5,301.5 C 1466.78,323.721 1474.78,346.055 1482.5,368.5C 1475.99,372.923 1469.66,377.589 1463.5,382.5C 1455.3,359.897 1447.3,337.23 1439.5,314.5C 1445.01,308.995 1451.34,304.661 1458.5,301.5 Z"/></g>
<g><path style="opacity:0.989" fill="#790aff" d="M 1439.5,314.5 C 1447.3,337.23 1455.3,359.897 1463.5,382.5C 1452.37,391.79 1441.37,401.29 1430.5,411C 1421.57,418.438 1412.24,425.271 1402.5,431.5C 1396.46,413.087 1390.13,394.753 1383.5,376.5C 1399.61,353.717 1418.27,333.05 1439.5,314.5 Z"/></g>
<g><path style="opacity:0.978" fill="#750eff" d="M 1383.5,376.5 C 1390.13,394.753 1396.46,413.087 1402.5,431.5C 1391.67,438.579 1380,444.079 1367.5,448C 1356.74,448.56 1352.24,443.393 1354,432.5C 1358.96,411.1 1368.79,392.434 1383.5,376.5 Z"/></g>
<g><path style="opacity:0.997" fill="#b800ff" d="M 2385.5,404.5 C 2406.46,463.062 2427.8,521.395 2449.5,579.5C 2428.98,604.292 2402.65,618.959 2370.5,623.5C 2343.83,550.162 2317.16,476.829 2290.5,403.5C 2322.19,393.858 2353.86,394.191 2385.5,404.5 Z"/></g>
<g><path style="opacity:0.997" fill="#9f00ff" d="M 2027.5,412.5 C 2047.56,467.026 2067.23,521.693 2086.5,576.5C 2073.03,583.4 2059.7,590.566 2046.5,598C 2033.72,604.726 2020.72,610.893 2007.5,616.5C 1981.77,546.991 1956.44,477.325 1931.5,407.5C 1937.85,405.193 1944.52,403.693 1951.5,403C 1977.63,400.266 2002.96,403.432 2027.5,412.5 Z"/></g>
<g><path style="opacity:0.997" fill="#b200ff" d="M 2290.5,403.5 C 2317.16,476.829 2343.83,550.162 2370.5,623.5C 2335.62,626.687 2302.29,621.02 2270.5,606.5C 2250.56,550.342 2230.23,494.342 2209.5,438.5C 2227.08,430.047 2244.74,421.547 2262.5,413C 2271.56,408.968 2280.89,405.801 2290.5,403.5 Z"/></g>
<g><path style="opacity:0.989" fill="#bd00ff" d="M 2385.5,404.5 C 2422.02,417.19 2448.19,441.19 2464,476.5C 2477.24,513.568 2472.41,547.902 2449.5,579.5C 2427.8,521.395 2406.46,463.062 2385.5,404.5 Z"/></g>
<g><path style="opacity:0.997" fill="#9800ff" d="M 1931.5,407.5 C 1956.44,477.325 1981.77,546.991 2007.5,616.5C 1977.63,627.515 1946.96,630.515 1915.5,625.5C 1895.7,570.097 1875.7,514.764 1855.5,459.5C 1874.5,433.207 1899.83,415.874 1931.5,407.5 Z"/></g>
<g><path style="opacity:0.995" fill="#a500ff" d="M 2027.5,412.5 C 2049.38,421.438 2071.05,430.938 2092.5,441C 2101.26,444.423 2110.26,446.923 2119.5,448.5C 2132.83,486.167 2146.17,523.833 2159.5,561.5C 2133.79,560.012 2109.46,565.012 2086.5,576.5C 2067.23,521.693 2047.56,467.026 2027.5,412.5 Z"/></g>
<g><path style="opacity:0.995" fill="#ab00ff" d="M 2209.5,438.5 C 2230.23,494.342 2250.56,550.342 2270.5,606.5C 2248.65,595.076 2226.65,583.909 2204.5,573C 2190.09,566.815 2175.09,562.982 2159.5,561.5C 2146.17,523.833 2132.83,486.167 2119.5,448.5C 2150.46,454.27 2180.46,450.937 2209.5,438.5 Z"/></g>
<g><path style="opacity:0.994" fill="#8600ff" d="M 1684.5,465.5 C 1689.4,481.205 1695.07,496.538 1701.5,511.5C 1702.08,551.983 1688.08,586.316 1659.5,614.5C 1638.46,558.395 1617.8,502.062 1597.5,445.5C 1621.83,436.776 1645.5,438.61 1668.5,451C 1674.63,454.96 1679.96,459.793 1684.5,465.5 Z"/></g>
<g><path style="opacity:0.996" fill="#8003ff" d="M 1597.5,445.5 C 1617.8,502.062 1638.46,558.395 1659.5,614.5C 1639.57,635.3 1615.24,647.967 1586.5,652.5C 1567.5,600.5 1548.5,548.5 1529.5,496.5C 1546.76,472.214 1569.42,455.214 1597.5,445.5 Z"/></g>
<g><path style="opacity:0.99" fill="#9400ff" d="M 1855.5,459.5 C 1875.7,514.764 1895.7,570.097 1915.5,625.5C 1868.97,614.468 1841.47,585.468 1833,538.5C 1830.31,509.089 1837.81,482.756 1855.5,459.5 Z"/></g>
<g><path style="opacity:0.897" fill="#8a00ff" d="M 1684.5,465.5 C 1695.16,478.849 1700.83,494.183 1701.5,511.5C 1695.07,496.538 1689.4,481.205 1684.5,465.5 Z"/></g>
<g><path style="opacity:0.995" fill="#7d07ff" d="M 1529.5,496.5 C 1548.5,548.5 1567.5,600.5 1586.5,652.5C 1578.17,653.833 1569.83,653.833 1561.5,652.5C 1546.03,608.769 1530.37,565.102 1514.5,521.5C 1518.25,512.33 1523.25,503.996 1529.5,496.5 Z"/></g>
<g><path style="opacity:0.988" fill="#7210ff" d="M 1383.5,637.5 C 1368.79,599.058 1354.46,560.391 1340.5,521.5C 1350.33,512.006 1362.16,506.673 1376,505.5C 1390.97,506.486 1400.64,514.153 1405,528.5C 1411.75,567.588 1404.58,603.921 1383.5,637.5 Z"/></g>
<g><path style="opacity:0.994" fill="#6f12ff" d="M 1340.5,521.5 C 1354.46,560.391 1368.79,599.058 1383.5,637.5C 1382,641.173 1380,644.506 1377.5,647.5C 1362.64,607.577 1347.97,567.577 1333.5,527.5C 1335.23,524.8 1337.57,522.8 1340.5,521.5 Z"/></g>
<g><path style="opacity:0.984" fill="#7b09ff" d="M 1514.5,521.5 C 1530.37,565.102 1546.03,608.769 1561.5,652.5C 1528.07,645.565 1508.23,625.232 1502,591.5C 1498.14,566.621 1502.31,543.287 1514.5,521.5 Z"/></g>
<g><path style="opacity:0.995" fill="#6c13ff" d="M 1333.5,527.5 C 1347.97,567.577 1362.64,607.577 1377.5,647.5C 1366.35,664.813 1352.02,678.98 1334.5,690C 1330.93,691.799 1327.26,693.299 1323.5,694.5C 1310.57,656.711 1297.24,619.044 1283.5,581.5C 1299.09,562.572 1315.76,544.572 1333.5,527.5 Z"/></g>
<g><path style="opacity:0.991" fill="#6716ff" d="M 1283.5,581.5 C 1297.24,619.044 1310.57,656.711 1323.5,694.5C 1308.72,699.737 1294.72,698.237 1281.5,690C 1276.46,685.288 1271.12,680.955 1265.5,677C 1258.5,672.333 1251.5,672.333 1244.5,677C 1241.63,680.038 1238.63,682.871 1235.5,685.5C 1231.07,672.194 1226.07,659.194 1220.5,646.5C 1227.53,628.776 1235.36,611.442 1244,594.5C 1245.18,592.643 1246.85,591.643 1249,591.5C 1251.76,593.252 1254.26,595.419 1256.5,598C 1257.83,598.667 1259.17,598.667 1260.5,598C 1269.14,593.861 1276.81,588.361 1283.5,581.5 Z"/></g>
<g><path style="opacity:0.98" fill="#6418ff" d="M 1220.5,646.5 C 1226.07,659.194 1231.07,672.194 1235.5,685.5C 1233.5,688.167 1231.5,690.833 1229.5,693.5C 1228.88,693.389 1228.38,693.056 1228,692.5C 1224.3,681.206 1220.13,670.206 1215.5,659.5C 1217.44,655.282 1219.11,650.949 1220.5,646.5 Z"/></g>
<g><path style="opacity:0.96" fill="#6119ff" d="M 1215.5,659.5 C 1220.13,670.206 1224.3,681.206 1228,692.5C 1228.38,693.056 1228.88,693.389 1229.5,693.5C 1219.09,709.972 1208.93,726.639 1199,743.5C 1195.18,748.821 1190.68,753.155 1185.5,756.5C 1187.4,744.956 1190.24,733.623 1194,722.5C 1200.87,701.376 1208.04,680.376 1215.5,659.5 Z"/></g>
<g><path style="opacity:0.997" fill="#b100ff" d="M 2414.5,743.5 C 2433.6,797.472 2453.27,851.139 2473.5,904.5C 2462.19,932.318 2443.52,953.818 2417.5,969C 2413.37,971.403 2409.03,973.237 2404.5,974.5C 2374.97,893.231 2345.63,811.898 2316.5,730.5C 2350.98,722.141 2383.65,726.474 2414.5,743.5 Z"/></g>
<g><path style="opacity:0.997" fill="#9200ff" d="M 1953.5,729.5 C 1979.83,801.5 2006.17,873.5 2032.5,945.5C 2014.39,964.561 1992.39,976.895 1966.5,982.5C 1937.87,902.938 1908.87,823.605 1879.5,744.5C 1902.85,733.629 1927.52,728.629 1953.5,729.5 Z"/></g>
<g><path style="opacity:0.992" fill="#9700ff" d="M 1953.5,729.5 C 1998.64,733.174 2032.47,754.508 2055,793.5C 2078.23,843.976 2073.56,891.643 2041,936.5C 2038.15,939.574 2035.32,942.574 2032.5,945.5C 2006.17,873.5 1979.83,801.5 1953.5,729.5 Z"/></g>
<g><path style="opacity:0.997" fill="#ab00ff" d="M 2316.5,730.5 C 2345.63,811.898 2374.97,893.231 2404.5,974.5C 2373.88,987.663 2342.88,988.663 2311.5,977.5C 2288.15,913.763 2264.81,850.097 2241.5,786.5C 2259.61,758.734 2284.61,740.068 2316.5,730.5 Z"/></g>
<g><path style="opacity:0.997" fill="#cb00ff" d="M 2777.5,748.5 C 2798.4,808.203 2820.07,867.536 2842.5,926.5C 2827.61,957.725 2803.28,977.058 2769.5,984.5C 2741.15,907.097 2712.81,829.763 2684.5,752.5C 2710.19,738.574 2737.19,735.74 2765.5,744C 2769.64,745.238 2773.64,746.738 2777.5,748.5 Z"/></g>
<g><path style="opacity:0.983" fill="#b600ff" d="M 2414.5,743.5 C 2449.72,763.552 2471.55,793.552 2480,833.5C 2484.44,857.8 2482.27,881.467 2473.5,904.5C 2453.27,851.139 2433.6,797.472 2414.5,743.5 Z"/></g>
<g><path style="opacity:0.997" fill="#8c00ff" d="M 1879.5,744.5 C 1908.87,823.605 1937.87,902.938 1966.5,982.5C 1931.47,989.425 1898.14,984.758 1866.5,968.5C 1845.03,908.102 1823.37,847.769 1801.5,787.5C 1821.3,777.103 1840.63,765.936 1859.5,754C 1866.07,750.549 1872.73,747.382 1879.5,744.5 Z"/></g>
<g><path style="opacity:0.997" fill="#790aff" d="M 1596.5,747.5 C 1620.99,814.98 1645.66,882.313 1670.5,949.5C 1650.28,964.28 1628.28,975.947 1604.5,984.5C 1578.36,912.085 1552.03,839.752 1525.5,767.5C 1546.54,751.987 1570.2,745.32 1596.5,747.5 Z"/></g>
<g><path style="opacity:0.997" fill="#7d07ff" d="M 1596.5,747.5 C 1605.34,747.81 1614,749.143 1622.5,751.5C 1644.84,813.511 1667.17,875.511 1689.5,937.5C 1683.37,941.736 1677.04,945.736 1670.5,949.5C 1645.66,882.313 1620.99,814.98 1596.5,747.5 Z"/></g>
<g><path style="opacity:0.988" fill="#cf00ff" d="M 2777.5,748.5 C 2821.29,770.835 2846.79,806.501 2854,855.5C 2856.81,880.312 2852.98,903.979 2842.5,926.5C 2820.07,867.536 2798.4,808.203 2777.5,748.5 Z"/></g>
<g><path style="opacity:0.995" fill="#8003ff" d="M 1622.5,751.5 C 1630,753.835 1637.33,756.668 1644.5,760C 1663.91,771.069 1683.58,781.735 1703.5,792C 1710.87,795.259 1718.54,797.425 1726.5,798.5C 1741.17,839.833 1755.83,881.167 1770.5,922.5C 1749.26,919.057 1728.6,921.224 1708.5,929C 1702.15,931.845 1695.81,934.679 1689.5,937.5C 1667.17,875.511 1644.84,813.511 1622.5,751.5 Z"/></g>
<g><path style="opacity:0.996" fill="#c400ff" d="M 2684.5,752.5 C 2712.81,829.763 2741.15,907.097 2769.5,984.5C 2725.01,991.78 2688.34,978.114 2659.5,943.5C 2649.6,914.117 2638.93,885.117 2627.5,856.5C 2626.94,819.808 2639.94,788.975 2666.5,764C 2672.05,759.397 2678.05,755.563 2684.5,752.5 Z"/></g>
<g><path style="opacity:0.995" fill="#730fff" d="M 1525.5,767.5 C 1552.03,839.752 1578.36,912.085 1604.5,984.5C 1584.98,989.258 1565.31,990.091 1545.5,987C 1527.09,982.303 1511.76,972.803 1499.5,958.5C 1490.35,932.215 1480.68,906.215 1470.5,880.5C 1471.12,833.875 1489.45,796.208 1525.5,767.5 Z"/></g>
<g><path style="opacity:0.991" fill="#6617ff" d="M 1338.5,968.5 C 1318.03,911.757 1297.36,855.09 1276.5,798.5C 1301.66,772.835 1326.5,773.168 1351,799.5C 1362.72,816.985 1369.05,836.318 1370,857.5C 1372.12,890.259 1365.78,921.259 1351,950.5C 1347.06,956.741 1342.89,962.741 1338.5,968.5 Z"/></g>
<g><path style="opacity:0.989" fill="#a600ff" d="M 2241.5,786.5 C 2264.81,850.097 2288.15,913.763 2311.5,977.5C 2271.25,963.086 2243.75,935.753 2229,895.5C 2217.16,857.235 2221.33,820.902 2241.5,786.5 Z"/></g>
<g><path style="opacity:0.995" fill="#8700ff" d="M 1801.5,787.5 C 1823.37,847.769 1845.03,908.102 1866.5,968.5C 1843.07,956.258 1819.74,943.758 1796.5,931C 1787.88,927.626 1779.21,924.793 1770.5,922.5C 1755.83,881.167 1741.17,839.833 1726.5,798.5C 1752.68,803.14 1777.68,799.474 1801.5,787.5 Z"/></g>
<g><path style="opacity:0.996" fill="#6418ff" d="M 1276.5,798.5 C 1297.36,855.09 1318.03,911.757 1338.5,968.5C 1336.5,971.167 1334.17,973.5 1331.5,975.5C 1310.85,919.237 1290.19,862.903 1269.5,806.5C 1271.84,803.793 1274.18,801.126 1276.5,798.5 Z"/></g>
<g><path style="opacity:0.992" fill="#6119ff" d="M 1269.5,806.5 C 1290.19,862.903 1310.85,919.237 1331.5,975.5C 1318.59,990.419 1302.25,996.586 1282.5,994C 1265.38,987.552 1253.55,975.718 1247,958.5C 1231.15,909.844 1235.81,863.177 1261,818.5C 1263.7,814.32 1266.53,810.32 1269.5,806.5 Z"/></g>
<g><path style="opacity:0.947" fill="#c000ff" d="M 2627.5,856.5 C 2638.93,885.117 2649.6,914.117 2659.5,943.5C 2638.2,918.61 2627.53,889.61 2627.5,856.5 Z"/></g>
<g><path style="opacity:0.937" fill="#6f12ff" d="M 1470.5,880.5 C 1480.68,906.215 1490.35,932.215 1499.5,958.5C 1485.15,941.855 1476.15,922.522 1472.5,900.5C 1471.57,893.855 1470.9,887.188 1470.5,880.5 Z"/></g>
<g><path style="opacity:0.981" fill="#5320ff" d="M 1178.5,1256.5 C 1172.4,1239.32 1166.07,1222.32 1159.5,1205.5C 1151.9,1165.51 1149.4,1125.17 1152,1084.5C 1152.37,1082 1153.21,1079.67 1154.5,1077.5C 1156.42,1076.36 1158.42,1076.19 1160.5,1077C 1168.09,1084.73 1173.26,1093.9 1176,1104.5C 1188.88,1149.41 1192.88,1195.08 1188,1241.5C 1187.12,1246.14 1185.45,1250.47 1183,1254.5C 1181.89,1256.04 1180.39,1256.7 1178.5,1256.5 Z"/></g>
<g><path style="opacity:0.995" fill="#601aff" d="M 1391.5,1141.5 C 1406.03,1181.09 1420.36,1220.75 1434.5,1260.5C 1415.11,1255.88 1397.11,1259.04 1380.5,1270C 1370.89,1277.45 1360.89,1284.28 1350.5,1290.5C 1326.23,1222.68 1301.56,1155.01 1276.5,1087.5C 1290.16,1083.28 1303.83,1083.78 1317.5,1089C 1324.99,1092.24 1331.99,1096.24 1338.5,1101C 1355.16,1115.98 1372.82,1129.48 1391.5,1141.5 Z"/></g>
<g><path style="opacity:0.994" fill="#5a1dff" d="M 1276.5,1087.5 C 1301.56,1155.01 1326.23,1222.68 1350.5,1290.5C 1321.31,1306.32 1295.48,1301.99 1273,1277.5C 1265.28,1268.06 1259.12,1257.73 1254.5,1246.5C 1251.4,1235.88 1247.74,1225.54 1243.5,1215.5C 1234.39,1182.8 1235.89,1150.46 1248,1118.5C 1253.56,1104.44 1263.06,1094.11 1276.5,1087.5 Z"/></g>
<g><path style="opacity:0.993" fill="#7310ff" d="M 1630.5,1317.5 C 1602.97,1242.25 1575.64,1166.91 1548.5,1091.5C 1587.47,1086.33 1619.97,1098.66 1646,1128.5C 1675.79,1166.09 1685.45,1208.42 1675,1255.5C 1668.2,1282.17 1653.36,1302.84 1630.5,1317.5 Z"/></g>
<g><path style="opacity:0.998" fill="#6f12ff" d="M 1548.5,1091.5 C 1575.64,1166.91 1602.97,1242.25 1630.5,1317.5C 1628.21,1319.65 1625.54,1321.32 1622.5,1322.5C 1594.84,1245.85 1567.17,1169.18 1539.5,1092.5C 1542.46,1091.84 1545.46,1091.51 1548.5,1091.5 Z"/></g>
<g><path style="opacity:0.997" fill="#6c13ff" d="M 1539.5,1092.5 C 1567.17,1169.18 1594.84,1245.85 1622.5,1322.5C 1600.5,1332.47 1577.83,1334.13 1554.5,1327.5C 1530.03,1259.42 1505.36,1191.42 1480.5,1123.5C 1498,1109.25 1517.67,1098.91 1539.5,1092.5 Z"/></g>
<g><path style="opacity:0.996" fill="#c400ff" d="M 2819.5,1121.5 C 2830.8,1153.73 2842.46,1185.73 2854.5,1217.5C 2850.64,1260.58 2831.3,1294.58 2796.5,1319.5C 2769.5,1244.83 2742.5,1170.17 2715.5,1095.5C 2750.89,1086.71 2783.22,1092.88 2812.5,1114C 2815.04,1116.37 2817.37,1118.87 2819.5,1121.5 Z"/></g>
<g><path style="opacity:0.997" fill="#8c00ff" d="M 2017.5,1120.5 C 2033.07,1165.54 2049.4,1210.2 2066.5,1254.5C 2057.08,1292.24 2035.08,1319.91 2000.5,1337.5C 1972.1,1256.96 1943.1,1176.63 1913.5,1096.5C 1951.82,1088.75 1986.49,1096.75 2017.5,1120.5 Z"/></g>
<g><path style="opacity:0.998" fill="#a500ff" d="M 2354.5,1094.5 C 2382.83,1173.16 2411.16,1251.82 2439.5,1330.5C 2417.65,1342.45 2394.31,1349.78 2369.5,1352.5C 2340.63,1273.23 2311.97,1193.9 2283.5,1114.5C 2305.12,1100.84 2328.78,1094.18 2354.5,1094.5 Z"/></g>
<g><path style="opacity:0.997" fill="#ab00ff" d="M 2354.5,1094.5 C 2392.61,1093.78 2427.61,1103.78 2459.5,1124.5C 2479.5,1179.5 2499.5,1234.5 2519.5,1289.5C 2508.96,1293.44 2498.63,1297.94 2488.5,1303C 2472.46,1312.69 2456.13,1321.85 2439.5,1330.5C 2411.16,1251.82 2382.83,1173.16 2354.5,1094.5 Z"/></g>
<g><path style="opacity:0.998" fill="#be00ff" d="M 2715.5,1095.5 C 2742.5,1170.17 2769.5,1244.83 2796.5,1319.5C 2775.36,1334.65 2751.69,1341.32 2725.5,1339.5C 2699.83,1268.83 2674.17,1198.16 2648.5,1127.5C 2669.08,1113.38 2691.41,1102.71 2715.5,1095.5 Z"/></g>
<g><path style="opacity:0.998" fill="#8600ff" d="M 1913.5,1096.5 C 1943.1,1176.63 1972.1,1256.96 2000.5,1337.5C 1976.7,1348.85 1951.7,1352.52 1925.5,1348.5C 1899.64,1276.91 1873.97,1205.24 1848.5,1133.5C 1866,1114.03 1887.67,1101.7 1913.5,1096.5 Z"/></g>
<g><path style="opacity:0.996" fill="#9f00ff" d="M 2283.5,1114.5 C 2311.97,1193.9 2340.63,1273.23 2369.5,1352.5C 2331.39,1356.31 2297.39,1346.48 2267.5,1323C 2265.29,1320.96 2263.29,1318.8 2261.5,1316.5C 2249.4,1281.54 2236.74,1246.87 2223.5,1212.5C 2228.25,1170.31 2248.25,1137.64 2283.5,1114.5 Z"/></g>
<g><path style="opacity:0.977" fill="#9100ff" d="M 2017.5,1120.5 C 2038.38,1135.89 2053.21,1155.89 2062,1180.5C 2070.07,1204.77 2071.57,1229.44 2066.5,1254.5C 2049.4,1210.2 2033.07,1165.54 2017.5,1120.5 Z"/></g>
<g><path style="opacity:0.967" fill="#c700ff" d="M 2819.5,1121.5 C 2839.5,1140.84 2851,1164.5 2854,1192.5C 2854.5,1200.83 2854.67,1209.16 2854.5,1217.5C 2842.46,1185.73 2830.8,1153.73 2819.5,1121.5 Z"/></g>
<g><path style="opacity:0.995" fill="#6716ff" d="M 1480.5,1123.5 C 1505.36,1191.42 1530.03,1259.42 1554.5,1327.5C 1542.61,1324.06 1531.28,1319.22 1520.5,1313C 1501.22,1300.06 1482.22,1286.72 1463.5,1273C 1457.57,1269.53 1451.57,1266.37 1445.5,1263.5C 1431.3,1224.23 1417.3,1184.9 1403.5,1145.5C 1422.92,1149.82 1441.25,1146.99 1458.5,1137C 1465.74,1132.25 1473.07,1127.75 1480.5,1123.5 Z"/></g>
<g><path style="opacity:0.995" fill="#b100ff" d="M 2459.5,1124.5 C 2476.57,1134.7 2494.24,1143.87 2512.5,1152C 2529.9,1158.59 2547.9,1161.43 2566.5,1160.5C 2582.5,1205.5 2598.5,1250.5 2614.5,1295.5C 2583.6,1281.18 2551.94,1279.18 2519.5,1289.5C 2499.5,1234.5 2479.5,1179.5 2459.5,1124.5 Z"/></g>
<g><path style="opacity:0.996" fill="#b800ff" d="M 2648.5,1127.5 C 2674.17,1198.16 2699.83,1268.83 2725.5,1339.5C 2698.99,1337.61 2674.32,1329.77 2651.5,1316C 2639.39,1308.62 2627.06,1301.78 2614.5,1295.5C 2598.5,1250.5 2582.5,1205.5 2566.5,1160.5C 2586.75,1158.25 2605.75,1152.08 2623.5,1142C 2631.89,1137.14 2640.22,1132.31 2648.5,1127.5 Z"/></g>
<g><path style="opacity:0.992" fill="#8102ff" d="M 1848.5,1133.5 C 1873.97,1205.24 1899.64,1276.91 1925.5,1348.5C 1871.06,1335.56 1835.9,1302.23 1820,1248.5C 1810.29,1205.17 1819.79,1166.84 1848.5,1133.5 Z"/></g>
<g><path style="opacity:0.993" fill="#6418ff" d="M 1391.5,1141.5 C 1395.57,1142.63 1399.57,1143.97 1403.5,1145.5C 1417.3,1184.9 1431.3,1224.23 1445.5,1263.5C 1441.78,1262.7 1438.11,1261.7 1434.5,1260.5C 1420.36,1220.75 1406.03,1181.09 1391.5,1141.5 Z"/></g>
<g><path style="opacity:0.926" fill="#5120ff" d="M 1159.5,1205.5 C 1166.07,1222.32 1172.4,1239.32 1178.5,1256.5C 1176.1,1256.61 1174.26,1255.61 1173,1253.5C 1165.76,1238.28 1161.26,1222.28 1159.5,1205.5 Z"/></g>
<g><path style="opacity:0.967" fill="#9b00ff" d="M 2223.5,1212.5 C 2236.74,1246.87 2249.4,1281.54 2261.5,1316.5C 2232.03,1288.1 2219.36,1253.43 2223.5,1212.5 Z"/></g>
<g><path style="opacity:0.799" fill="#571dff" d="M 1243.5,1215.5 C 1247.74,1225.54 1251.4,1235.88 1254.5,1246.5C 1249.07,1236.88 1245.4,1226.55 1243.5,1215.5 Z"/></g>
<g><path style="opacity:0.972" fill="#5020ff" d="M 1222.5,1375.5 C 1234.64,1410.58 1246.97,1445.58 1259.5,1480.5C 1255.84,1481.31 1253.17,1483.48 1251.5,1487C 1249.83,1487.67 1248.17,1487.67 1246.5,1487C 1244.21,1484.26 1242.05,1481.42 1240,1478.5C 1217.47,1428.92 1199.3,1377.75 1185.5,1325C 1185.83,1324.17 1186.17,1323.33 1186.5,1322.5C 1191.19,1326.35 1195.35,1330.68 1199,1335.5C 1207.1,1348.7 1214.93,1362.03 1222.5,1375.5 Z"/></g>
<g><path style="opacity:0.99" fill="#5320ff" d="M 1222.5,1375.5 C 1228.52,1385.36 1235.86,1394.19 1244.5,1402C 1252.35,1406.79 1260.01,1406.45 1267.5,1401C 1272.37,1396.62 1277.37,1392.46 1282.5,1388.5C 1303.36,1445.76 1324.03,1503.09 1344.5,1560.5C 1336.25,1554.42 1328.41,1547.75 1321,1540.5C 1307.2,1524.37 1293.04,1508.54 1278.5,1493C 1272.82,1487.83 1266.49,1483.66 1259.5,1480.5C 1246.97,1445.58 1234.64,1410.58 1222.5,1375.5 Z"/></g>
<g><path style="opacity:0.996" fill="#561eff" d="M 1304.5,1381.5 C 1327.9,1445.36 1350.9,1509.36 1373.5,1573.5C 1362.41,1572.12 1352.74,1567.79 1344.5,1560.5C 1324.03,1503.09 1303.36,1445.76 1282.5,1388.5C 1289.04,1383.77 1296.37,1381.43 1304.5,1381.5 Z"/></g>
<g><path style="opacity:0.991" fill="#591dff" d="M 1304.5,1381.5 C 1321.97,1382.4 1337.3,1388.57 1350.5,1400C 1392,1438.85 1410.84,1486.69 1407,1543.5C 1403.78,1562.56 1392.61,1572.56 1373.5,1573.5C 1350.9,1509.36 1327.9,1445.36 1304.5,1381.5 Z"/></g>
<g><path style="opacity:0.997" fill="#6716ff" d="M 1591.5,1427.5 C 1615.6,1495.14 1640.27,1562.47 1665.5,1629.5C 1644.4,1640.37 1622.4,1642.2 1599.5,1635C 1591.27,1632.55 1583.6,1629.05 1576.5,1624.5C 1556.86,1568.29 1536.53,1511.95 1515.5,1455.5C 1526.13,1439.5 1541.13,1430 1560.5,1427C 1570.86,1425.22 1581.19,1425.38 1591.5,1427.5 Z"/></g>
<g><path style="opacity:0.991" fill="#6c14ff" d="M 1591.5,1427.5 C 1641.34,1439.5 1675.51,1469.5 1694,1517.5C 1702.18,1540.8 1703.51,1564.47 1698,1588.5C 1692.4,1606.41 1681.56,1620.07 1665.5,1629.5C 1640.27,1562.47 1615.6,1495.14 1591.5,1427.5 Z"/></g>
<g><path style="opacity:0.998" fill="#8003ff" d="M 1964.5,1452.5 C 1989.63,1522.57 2014.97,1592.57 2040.5,1662.5C 2014.36,1674.08 1987.03,1678.74 1958.5,1676.5C 1933.37,1606.43 1908.03,1536.43 1882.5,1466.5C 1901.61,1455.56 1922.28,1450.56 1944.5,1451.5C 1951.21,1451.54 1957.88,1451.87 1964.5,1452.5 Z"/></g>
<g><path style="opacity:0.996" fill="#8600ff" d="M 1964.5,1452.5 C 1997.44,1456.48 2027.78,1467.48 2055.5,1485.5C 2073.17,1534.84 2090.84,1584.18 2108.5,1633.5C 2101.33,1635.5 2094.33,1638 2087.5,1641C 2071.81,1648.18 2056.14,1655.35 2040.5,1662.5C 2014.97,1592.57 1989.63,1522.57 1964.5,1452.5 Z"/></g>
<g><path style="opacity:0.997" fill="#9f00ff" d="M 2412.5,1469.5 C 2428.6,1515.14 2445.27,1560.47 2462.5,1605.5C 2447.59,1637.07 2423.93,1659.4 2391.5,1672.5C 2365.87,1601.28 2339.87,1530.28 2313.5,1459.5C 2339.08,1452.74 2364.75,1452.91 2390.5,1460C 2398.31,1462.32 2405.64,1465.48 2412.5,1469.5 Z"/></g>
<g><path style="opacity:0.995" fill="#6418ff" d="M 1515.5,1455.5 C 1536.53,1511.95 1556.86,1568.29 1576.5,1624.5C 1572.15,1622.33 1568.15,1619.66 1564.5,1616.5C 1546.36,1566.09 1528.03,1515.76 1509.5,1465.5C 1510.5,1461.49 1512.5,1458.16 1515.5,1455.5 Z"/></g>
<g><path style="opacity:0.997" fill="#9800ff" d="M 2313.5,1459.5 C 2339.87,1530.28 2365.87,1601.28 2391.5,1672.5C 2361.08,1683.86 2330.08,1685.53 2298.5,1677.5C 2276.3,1616.23 2254.3,1554.9 2232.5,1493.5C 2254.49,1480.84 2277.49,1470.34 2301.5,1462C 2305.45,1460.85 2309.45,1460.01 2313.5,1459.5 Z"/></g>
<g><path style="opacity:0.982" fill="#6218ff" d="M 1509.5,1465.5 C 1528.03,1515.76 1546.36,1566.09 1564.5,1616.5C 1531.58,1593.37 1510.74,1562.04 1502,1522.5C 1499.85,1509.1 1500.18,1495.77 1503,1482.5C 1504.31,1476.39 1506.48,1470.73 1509.5,1465.5 Z"/></g>
<g><path style="opacity:0.997" fill="#7d07ff" d="M 1882.5,1466.5 C 1908.03,1536.43 1933.37,1606.43 1958.5,1676.5C 1949.95,1676.28 1941.62,1674.95 1933.5,1672.5C 1909.97,1608.58 1886.64,1544.58 1863.5,1480.5C 1869.25,1475.09 1875.58,1470.43 1882.5,1466.5 Z"/></g>
<g><path style="opacity:0.983" fill="#a300ff" d="M 2412.5,1469.5 C 2450.22,1489.45 2469.88,1520.95 2471.5,1564C 2471.24,1578.47 2468.24,1592.31 2462.5,1605.5C 2445.27,1560.47 2428.6,1515.14 2412.5,1469.5 Z"/></g>
<g><path style="opacity:0.991" fill="#7a0aff" d="M 1863.5,1480.5 C 1886.64,1544.58 1909.97,1608.58 1933.5,1672.5C 1888.82,1660.31 1857.32,1632.98 1839,1590.5C 1826.01,1552.41 1832.01,1517.74 1857,1486.5C 1859.04,1484.29 1861.2,1482.29 1863.5,1480.5 Z"/></g>
<g><path style="opacity:0.995" fill="#8c00ff" d="M 2055.5,1485.5 C 2073.7,1495.93 2092.7,1504.76 2112.5,1512C 2128.52,1516.96 2144.85,1518.8 2161.5,1517.5C 2176.23,1557.36 2190.56,1597.36 2204.5,1637.5C 2172.89,1626.05 2140.89,1624.71 2108.5,1633.5C 2090.84,1584.18 2073.17,1534.84 2055.5,1485.5 Z"/></g>
<g><path style="opacity:0.996" fill="#9300ff" d="M 2232.5,1493.5 C 2254.3,1554.9 2276.3,1616.23 2298.5,1677.5C 2286.8,1674.77 2275.47,1670.93 2264.5,1666C 2244.53,1656.18 2224.53,1646.68 2204.5,1637.5C 2190.56,1597.36 2176.23,1557.36 2161.5,1517.5C 2186.95,1514.68 2210.62,1506.68 2232.5,1493.5 Z"/></g>
<g><path style="opacity:0.992" fill="#fefffe" d="M -0.5,2108.5 C -0.5,2099.5 -0.5,2090.5 -0.5,2081.5C 2.60271,2022.13 25.6027,1971.97 68.5,1931C 117.973,1890.03 174.973,1872.03 239.5,1877C 304.53,1881.6 357.697,1908.76 399,1958.5C 414.009,1978.01 425.509,1999.51 433.5,2023C 400.828,2023.83 368.162,2023.67 335.5,2022.5C 311.096,1984.28 276.096,1963.45 230.5,1960C 187.076,1957.47 150.576,1971.97 121,2003.5C 92.5539,2041.04 83.2206,2083.04 93,2129.5C 103.34,2173.83 129.507,2204.67 171.5,2222C 214.203,2236.51 255.203,2232.84 294.5,2211C 315.643,2197.54 331.31,2179.37 341.5,2156.5C 317.174,2155.67 292.84,2155.17 268.5,2155C 250.637,2150.81 238.804,2139.97 233,2122.5C 231.575,2105.88 231.075,2089.22 231.5,2072.5C 302.167,2072.5 372.833,2072.5 443.5,2072.5C 447.118,2118.91 438.618,2162.91 418,2204.5C 379.944,2269.48 323.111,2305.65 247.5,2313C 198.261,2317.95 151.594,2309.28 107.5,2287C 54.4354,2256.9 20.6021,2212.07 6,2152.5C 2.836,2137.83 0.66933,2123.16 -0.5,2108.5 Z"/></g>
<g><path style="opacity:0.993" fill="#fefffe" d="M 994.5,1876.5 C 1054.89,1872.47 1109.22,1888.31 1157.5,1924C 1201.39,1960.93 1226.56,2008.1 1233,2065.5C 1240.41,2128.54 1225.08,2185.21 1187,2235.5C 1140.72,2287.8 1082.38,2314.13 1012,2314.5C 958.36,2314.62 910.194,2298.79 867.5,2267C 815.423,2221.99 789.423,2164.83 789.5,2095.5C 789.457,2031.79 811.791,1977.63 856.5,1933C 896.133,1898.84 942.133,1880.01 994.5,1876.5 Z M 1003.5,1959.5 C 1047.42,1957.56 1084.25,1972.56 1114,2004.5C 1140.1,2038.56 1149.77,2076.89 1143,2119.5C 1130.36,2182.81 1092.19,2219.64 1028.5,2230C 979.204,2235.25 938.704,2219.08 907,2181.5C 879.79,2141.24 872.79,2097.57 886,2050.5C 905.695,1995.06 944.862,1964.73 1003.5,1959.5 Z"/></g>
<g><path style="opacity:0.991" fill="#be00ff" d="M 2999.5,1877.5 C 3009.36,1903.76 3019.03,1930.09 3028.5,1956.5C 3002.14,1947.75 2975.14,1945.09 2947.5,1948.5C 2939.1,1926.31 2931.1,1903.98 2923.5,1881.5C 2933.56,1879.11 2943.9,1877.61 2954.5,1877C 2969.51,1876.33 2984.51,1876.5 2999.5,1877.5 Z"/></g>
<g><path style="opacity:0.991" fill="#dd00ff" d="M 3483.5,1877.5 C 3492.44,1903.97 3501.77,1930.31 3511.5,1956.5C 3484.81,1947.36 3457.48,1945.03 3429.5,1949.5C 3420.55,1950.9 3411.88,1953.24 3403.5,1956.5C 3395.3,1933.9 3387.3,1911.23 3379.5,1888.5C 3413.36,1877.79 3448.03,1874.12 3483.5,1877.5 Z"/></g>
<g><path style="opacity:0.993" fill="#c400ff" d="M 2999.5,1877.5 C 3032.09,1880.81 3062.76,1890.31 3091.5,1906C 3098.09,1909.45 3104.09,1913.62 3109.5,1918.5C 3136.3,1992.91 3163.3,2067.25 3190.5,2141.5C 3182.95,2182.94 3164.61,2218.61 3135.5,2248.5C 3124.56,2220.28 3113.89,2191.94 3103.5,2163.5C 3124.43,2114.66 3123.27,2066.33 3100,2018.5C 3083.37,1989.36 3059.54,1968.69 3028.5,1956.5C 3019.03,1930.09 3009.36,1903.76 2999.5,1877.5 Z"/></g>
<g><path style="opacity:0.993" fill="#e300ff" d="M 3483.5,1877.5 C 3533.19,1882.02 3576.52,1900.69 3613.5,1933.5C 3634.55,1993.98 3656.55,2053.98 3679.5,2113.5C 3676.05,2161.04 3659.22,2203.04 3629,2239.5C 3625.63,2243.04 3622.13,2246.37 3618.5,2249.5C 3608.17,2221.5 3597.83,2193.5 3587.5,2165.5C 3606.77,2122.48 3608.27,2078.81 3592,2034.5C 3576.44,1996.77 3549.61,1970.77 3511.5,1956.5C 3501.77,1930.31 3492.44,1903.97 3483.5,1877.5 Z"/></g>
<g><path style="opacity:0.991" fill="#b800ff" d="M 2923.5,1881.5 C 2931.1,1903.98 2939.1,1926.31 2947.5,1948.5C 2916.45,1953.69 2889.78,1967.36 2867.5,1989.5C 2858.87,1964.61 2849.87,1939.94 2840.5,1915.5C 2865.46,1897.86 2893.12,1886.53 2923.5,1881.5 Z"/></g>
<g><path style="opacity:0.99" fill="#fefffe" d="M 486.5,1882.5 C 516.5,1882.5 546.5,1882.5 576.5,1882.5C 576.5,1996.5 576.5,2110.5 576.5,2224.5C 645.167,2224.5 713.833,2224.5 782.5,2224.5C 782.5,2252.17 782.5,2279.83 782.5,2307.5C 683.833,2307.5 585.167,2307.5 486.5,2307.5C 486.5,2165.83 486.5,2024.17 486.5,1882.5 Z"/></g>
<g><path style="opacity:0.993" fill="#fefffe" d="M 1267.5,1882.5 C 1334.52,1882.05 1401.52,1882.55 1468.5,1884C 1508.93,1887.79 1541.76,1905.29 1567,1936.5C 1588.8,1970.52 1592.47,2006.52 1578,2044.5C 1571.76,2059.16 1562.93,2071.99 1551.5,2083C 1600.19,2116.92 1617.02,2162.75 1602,2220.5C 1588.28,2256.55 1563.45,2281.72 1527.5,2296C 1511.68,2301.96 1495.35,2305.63 1478.5,2307C 1408.17,2307.5 1337.83,2307.67 1267.5,2307.5C 1267.5,2165.83 1267.5,2024.17 1267.5,1882.5 Z M 1357.5,1966.5 C 1392.54,1966.03 1427.54,1966.53 1462.5,1968C 1477.74,1971.35 1488.91,1979.85 1496,1993.5C 1502.73,2021.53 1492.23,2039.7 1464.5,2048C 1461.21,2048.88 1457.88,2049.55 1454.5,2050C 1422.17,2050.5 1389.84,2050.67 1357.5,2050.5C 1357.5,2022.5 1357.5,1994.5 1357.5,1966.5 Z M 1357.5,2133.5 C 1393.17,2133.33 1428.83,2133.5 1464.5,2134C 1480.67,2134.61 1494.84,2140.11 1507,2150.5C 1517.09,2162.55 1520.09,2176.21 1516,2191.5C 1513.06,2200.87 1507.56,2208.37 1499.5,2214C 1490.17,2219.33 1480.17,2222.67 1469.5,2224C 1432.17,2224.5 1394.83,2224.67 1357.5,2224.5C 1357.5,2194.17 1357.5,2163.83 1357.5,2133.5 Z"/></g>
<g><path style="opacity:0.994" fill="#fefffe" d="M 1771.5,1882.5 C 1799.17,1882.17 1826.84,1882.5 1854.5,1883.5C 1909.41,2024.72 1964.41,2165.89 2019.5,2307C 1987.17,2307.67 1954.83,2307.67 1922.5,2307C 1912.47,2282.08 1903.14,2256.92 1894.5,2231.5C 1840.17,2231.33 1785.83,2231.5 1731.5,2232C 1721.83,2257 1712.17,2282 1702.5,2307C 1670.5,2307.5 1638.5,2307.67 1606.5,2307.5C 1660.91,2165.6 1715.91,2023.94 1771.5,1882.5 Z M 1812.5,2016.5 C 1829.14,2060.07 1845.8,2103.73 1862.5,2147.5C 1829.5,2148.83 1796.5,2148.83 1763.5,2147.5C 1780.04,2103.89 1796.37,2060.22 1812.5,2016.5 Z"/></g>
<g><path style="opacity:0.99" fill="#fefffe" d="M 2052.5,1882.5 C 2082.5,1882.5 2112.5,1882.5 2142.5,1882.5C 2142.5,1996.5 2142.5,2110.5 2142.5,2224.5C 2211.17,2224.5 2279.83,2224.5 2348.5,2224.5C 2348.5,2252.17 2348.5,2279.83 2348.5,2307.5C 2249.83,2307.5 2151.17,2307.5 2052.5,2307.5C 2052.5,2165.83 2052.5,2024.17 2052.5,1882.5 Z"/></g>
<g><path style="opacity:0.993" fill="#9800ff" d="M 2468.5,1882.5 C 2476.63,1906.23 2484.97,1929.9 2493.5,1953.5C 2488.83,1953.5 2484.17,1953.5 2479.5,1953.5C 2479.5,1999.83 2479.5,2046.17 2479.5,2092.5C 2501.17,2092.5 2522.83,2092.5 2544.5,2092.5C 2552.89,2116.28 2561.56,2139.95 2570.5,2163.5C 2540.17,2163.5 2509.83,2163.5 2479.5,2163.5C 2479.5,2166.17 2479.5,2168.83 2479.5,2171.5C 2453.44,2102.32 2427.77,2032.99 2402.5,1963.5C 2402.5,1936.5 2402.5,1909.5 2402.5,1882.5C 2424.5,1882.5 2446.5,1882.5 2468.5,1882.5 Z"/></g>
<g><path style="opacity:0.987" fill="#9f00ff" d="M 2468.5,1882.5 C 2499.83,1882.5 2531.17,1882.5 2562.5,1882.5C 2571.56,1906.69 2580.23,1931.02 2588.5,1955.5C 2585.21,1954.84 2581.88,1954.34 2578.5,1954C 2550.17,1953.5 2521.84,1953.33 2493.5,1953.5C 2484.97,1929.9 2476.63,1906.23 2468.5,1882.5 Z"/></g>
<g><path style="opacity:0.993" fill="#a500ff" d="M 2562.5,1882.5 C 2591.72,1881.81 2619.72,1887.15 2646.5,1898.5C 2668.7,1959.09 2690.7,2019.75 2712.5,2080.5C 2701.64,2108.24 2682.97,2128.9 2656.5,2142.5C 2648.03,2117.77 2639.37,2093.1 2630.5,2068.5C 2647.19,2046.7 2651.02,2022.7 2642,1996.5C 2631.31,1973.57 2613.48,1959.9 2588.5,1955.5C 2580.23,1931.02 2571.56,1906.69 2562.5,1882.5 Z"/></g>
<g><path style="opacity:0.997" fill="#ef00ff" d="M 3799.5,2137.5 C 3773.97,2068.91 3748.64,2000.24 3723.5,1931.5C 3723.5,1915.17 3723.5,1898.83 3723.5,1882.5C 3748.83,1882.5 3774.17,1882.5 3799.5,1882.5C 3799.5,1967.5 3799.5,2052.5 3799.5,2137.5 Z"/></g>
<g><path style="opacity:0.991" fill="#d700ff" d="M 3379.5,1888.5 C 3387.3,1911.23 3395.3,1933.9 3403.5,1956.5C 3374.68,1966.89 3352.01,1984.89 3335.5,2010.5C 3325.63,1983.57 3315.97,1956.57 3306.5,1929.5C 3327.91,1910.95 3352.24,1897.29 3379.5,1888.5 Z"/></g>
<g><path style="opacity:0.987" fill="#a900ff" d="M 2646.5,1898.5 C 2698.15,1923.58 2723.81,1965.08 2723.5,2023C 2724.07,2043.11 2720.4,2062.28 2712.5,2080.5C 2690.7,2019.75 2668.7,1959.09 2646.5,1898.5 Z"/></g>
<g><path style="opacity:0.99" fill="#b100ff" d="M 2840.5,1915.5 C 2849.87,1939.94 2858.87,1964.61 2867.5,1989.5C 2835.67,2025.83 2822.84,2068.17 2829,2116.5C 2841.26,2191.59 2885.09,2233.92 2960.5,2243.5C 2968.83,2266.83 2977.17,2290.17 2985.5,2313.5C 2951.53,2315.74 2918.53,2311.08 2886.5,2299.5C 2849.74,2196.54 2812.4,2093.87 2774.5,1991.5C 2785.7,1968.63 2800.7,1948.46 2819.5,1931C 2826.11,1925.21 2833.11,1920.04 2840.5,1915.5 Z"/></g>
<g><path style="opacity:0.986" fill="#c800ff" d="M 3109.5,1918.5 C 3142.92,1941.95 3166.75,1972.95 3181,2011.5C 3196.11,2054.12 3199.28,2097.45 3190.5,2141.5C 3163.3,2067.25 3136.3,1992.91 3109.5,1918.5 Z"/></g>
<g><path style="opacity:0.992" fill="#d100ff" d="M 3306.5,1929.5 C 3315.97,1956.57 3325.63,1983.57 3335.5,2010.5C 3310.65,2054.64 3305.82,2100.97 3321,2149.5C 3338.47,2196.48 3371.31,2226.48 3419.5,2239.5C 3427.97,2264.23 3436.63,2288.9 3445.5,2313.5C 3405.55,2312.6 3368.55,2301.93 3334.5,2281.5C 3304.54,2197.94 3274.2,2114.61 3243.5,2031.5C 3254.36,1991.1 3275.36,1957.1 3306.5,1929.5 Z"/></g>
<g><path style="opacity:1" fill="#eb00ff" d="M 3723.5,1931.5 C 3748.64,2000.24 3773.97,2068.91 3799.5,2137.5C 3799.5,2170.83 3799.5,2204.17 3799.5,2237.5C 3811.5,2237.5 3823.5,2237.5 3835.5,2237.5C 3843.83,2260.83 3852.17,2284.17 3860.5,2307.5C 3823.17,2307.5 3785.83,2307.5 3748.5,2307.5C 3740.74,2284.21 3732.4,2261.21 3723.5,2238.5C 3723.5,2136.17 3723.5,2033.83 3723.5,1931.5 Z"/></g>
<g><path style="opacity:0.978" fill="#e800ff" d="M 3613.5,1933.5 C 3650.06,1968.28 3671.56,2010.94 3678,2061.5C 3680.17,2078.8 3680.67,2096.13 3679.5,2113.5C 3656.55,2053.98 3634.55,1993.98 3613.5,1933.5 Z"/></g>
<g><path style="opacity:0.996" fill="#9300ff" d="M 2402.5,1963.5 C 2427.77,2032.99 2453.44,2102.32 2479.5,2171.5C 2479.5,2216.83 2479.5,2262.17 2479.5,2307.5C 2469.17,2307.5 2458.83,2307.5 2448.5,2307.5C 2433.73,2265.2 2418.4,2223.2 2402.5,2181.5C 2402.5,2108.83 2402.5,2036.17 2402.5,1963.5 Z"/></g>
<g><path style="opacity:0.992" fill="#ac00ff" d="M 2774.5,1991.5 C 2812.4,2093.87 2849.74,2196.54 2886.5,2299.5C 2812.51,2269.66 2768.35,2215.32 2754,2136.5C 2747.45,2095.01 2750.78,2054.35 2764,2014.5C 2767,2006.5 2770.5,1998.84 2774.5,1991.5 Z"/></g>
<g><path style="opacity:0.989" fill="#cd00ff" d="M 3243.5,2031.5 C 3274.2,2114.61 3304.54,2197.94 3334.5,2281.5C 3283.68,2249.46 3252.18,2203.79 3240,2144.5C 3233.1,2106.55 3234.27,2068.89 3243.5,2031.5 Z"/></g>
<g><path style="opacity:0.99" fill="#9f00ff" d="M 2630.5,2068.5 C 2639.37,2093.1 2648.03,2117.77 2656.5,2142.5C 2637.31,2153.3 2616.65,2159.8 2594.5,2162C 2586.52,2162.93 2578.52,2163.43 2570.5,2163.5C 2561.56,2139.95 2552.89,2116.28 2544.5,2092.5C 2556.84,2092.67 2569.17,2092.5 2581.5,2092C 2600.67,2089.79 2617,2081.96 2630.5,2068.5 Z"/></g>
<g><path style="opacity:0.99" fill="#be00ff" d="M 3103.5,2163.5 C 3113.89,2191.94 3124.56,2220.28 3135.5,2248.5C 3117.43,2267.37 3096.43,2282.03 3072.5,2292.5C 3064.17,2269.83 3055.83,2247.16 3047.5,2224.5C 3072.33,2209.87 3090.99,2189.54 3103.5,2163.5 Z"/></g>
<g><path style="opacity:0.991" fill="#dd00ff" d="M 3587.5,2165.5 C 3597.83,2193.5 3608.17,2221.5 3618.5,2249.5C 3594.02,2275.09 3564.69,2293.09 3530.5,2303.5C 3521.97,2281.24 3513.64,2258.91 3505.5,2236.5C 3542.1,2223.57 3569.44,2199.9 3587.5,2165.5 Z"/></g>
<g><path style="opacity:1" fill="#8e00ff" d="M 2402.5,2181.5 C 2418.4,2223.2 2433.73,2265.2 2448.5,2307.5C 2433.17,2307.5 2417.83,2307.5 2402.5,2307.5C 2402.5,2265.5 2402.5,2223.5 2402.5,2181.5 Z"/></g>
<g><path style="opacity:0.992" fill="#b800ff" d="M 3047.5,2224.5 C 3055.83,2247.16 3064.17,2269.83 3072.5,2292.5C 3045.13,2305.71 3016.13,2312.71 2985.5,2313.5C 2977.17,2290.17 2968.83,2266.83 2960.5,2243.5C 2991.4,2245.46 3020.4,2239.12 3047.5,2224.5 Z"/></g>
<g><path style="opacity:0.992" fill="#d700ff" d="M 3505.5,2236.5 C 3513.64,2258.91 3521.97,2281.24 3530.5,2303.5C 3502.72,2311.96 3474.38,2315.29 3445.5,2313.5C 3436.63,2288.9 3427.97,2264.23 3419.5,2239.5C 3448.42,2245.55 3477.09,2244.55 3505.5,2236.5 Z"/></g>
<g><path style="opacity:1" fill="#f000ff" d="M 3835.5,2237.5 C 3873.83,2237.5 3912.17,2237.5 3950.5,2237.5C 3958.44,2260.98 3966.77,2284.31 3975.5,2307.5C 3937.17,2307.5 3898.83,2307.5 3860.5,2307.5C 3852.17,2284.17 3843.83,2260.83 3835.5,2237.5 Z"/></g>
<g><path style="opacity:1" fill="#f402ff" d="M 3950.5,2237.5 C 3960.83,2237.5 3971.17,2237.5 3981.5,2237.5C 3986.99,2253.79 3992.99,2269.79 3999.5,2285.5C 3999.5,2292.83 3999.5,2300.17 3999.5,2307.5C 3991.5,2307.5 3983.5,2307.5 3975.5,2307.5C 3966.77,2284.31 3958.44,2260.98 3950.5,2237.5 Z"/></g>
<g><path style="opacity:1" fill="#f509ff" d="M 3981.5,2237.5 C 3987.5,2237.5 3993.5,2237.5 3999.5,2237.5C 3999.5,2253.5 3999.5,2269.5 3999.5,2285.5C 3992.99,2269.79 3986.99,2253.79 3981.5,2237.5 Z"/></g>
<g><path style="opacity:1" fill="#e600ff" d="M 3723.5,2238.5 C 3732.4,2261.21 3740.74,2284.21 3748.5,2307.5C 3740.17,2307.5 3731.83,2307.5 3723.5,2307.5C 3723.5,2284.5 3723.5,2261.5 3723.5,2238.5 Z"/></g>
<g><path style="opacity:0.956" fill="#fefffe" d="M 2598.5,2695.5 C 2580.17,2695.5 2561.83,2695.5 2543.5,2695.5C 2536.34,2692.67 2529.84,2688.67 2524,2683.5C 2524.45,2678.92 2526.29,2674.92 2529.5,2671.5C 2548.67,2687.06 2570.01,2690.89 2593.5,2683C 2604.02,2677.44 2607.52,2668.94 2604,2657.5C 2599.39,2650.69 2593.06,2646.36 2585,2644.5C 2570.89,2641.18 2557.06,2637.02 2543.5,2632C 2529.51,2624.19 2524.01,2612.36 2527,2596.5C 2531.98,2580.52 2542.82,2571.36 2559.5,2569C 2578.66,2565.81 2596.66,2568.98 2613.5,2578.5C 2613.44,2583.02 2612.11,2587.35 2609.5,2591.5C 2590.75,2579.27 2571.09,2577.43 2550.5,2586C 2536.86,2597.81 2537.19,2609.14 2551.5,2620C 2566.73,2624.97 2582.06,2629.64 2597.5,2634C 2620.26,2644.51 2625.76,2661.01 2614,2683.5C 2609.58,2688.61 2604.41,2692.61 2598.5,2695.5 Z"/></g>
<g><path style="opacity:0.96" fill="#fefffe" d="M 578.5,2695.5 C 573.5,2695.5 568.5,2695.5 563.5,2695.5C 563.5,2657.5 563.5,2619.5 563.5,2581.5C 548.5,2581.5 533.5,2581.5 518.5,2581.5C 518.5,2577.5 518.5,2573.5 518.5,2569.5C 553.5,2569.5 588.5,2569.5 623.5,2569.5C 623.5,2573.5 623.5,2577.5 623.5,2581.5C 608.5,2581.5 593.5,2581.5 578.5,2581.5C 578.5,2619.5 578.5,2657.5 578.5,2695.5 Z"/></g>
<g><path style="opacity:0.942" fill="#fefffe" d="M 811.5,2695.5 C 806.5,2695.5 801.5,2695.5 796.5,2695.5C 796.5,2676.83 796.5,2658.17 796.5,2639.5C 770.167,2639.5 743.833,2639.5 717.5,2639.5C 717.5,2658.17 717.5,2676.83 717.5,2695.5C 712.5,2695.5 707.5,2695.5 702.5,2695.5C 702.5,2653.5 702.5,2611.5 702.5,2569.5C 707.5,2569.5 712.5,2569.5 717.5,2569.5C 717.5,2588.5 717.5,2607.5 717.5,2626.5C 743.833,2626.5 770.167,2626.5 796.5,2626.5C 796.5,2607.5 796.5,2588.5 796.5,2569.5C 801.5,2569.5 806.5,2569.5 811.5,2569.5C 811.5,2611.5 811.5,2653.5 811.5,2695.5 Z"/></g>
<g><path style="opacity:0.959" fill="#fefffe" d="M 1002.5,2695.5 C 971.833,2695.5 941.167,2695.5 910.5,2695.5C 910.5,2653.5 910.5,2611.5 910.5,2569.5C 940.167,2569.5 969.833,2569.5 999.5,2569.5C 999.5,2573.5 999.5,2577.5 999.5,2581.5C 974.833,2581.5 950.167,2581.5 925.5,2581.5C 925.5,2596.5 925.5,2611.5 925.5,2626.5C 947.5,2626.5 969.5,2626.5 991.5,2626.5C 991.5,2630.83 991.5,2635.17 991.5,2639.5C 969.5,2639.5 947.5,2639.5 925.5,2639.5C 925.5,2654.83 925.5,2670.17 925.5,2685.5C 951.167,2685.5 976.833,2685.5 1002.5,2685.5C 1002.5,2688.83 1002.5,2692.17 1002.5,2695.5 Z"/></g>
<g><path style="opacity:0.987" fill="#fefffe" d="M 1213.5,2695.5 C 1208.83,2695.5 1204.17,2695.5 1199.5,2695.5C 1199.5,2653.5 1199.5,2611.5 1199.5,2569.5C 1229.17,2569.5 1258.83,2569.5 1288.5,2569.5C 1288.5,2573.5 1288.5,2577.5 1288.5,2581.5C 1263.5,2581.5 1238.5,2581.5 1213.5,2581.5C 1213.5,2598.17 1213.5,2614.83 1213.5,2631.5C 1235.83,2631.5 1258.17,2631.5 1280.5,2631.5C 1280.5,2635.83 1280.5,2640.17 1280.5,2644.5C 1258.17,2644.5 1235.83,2644.5 1213.5,2644.5C 1213.5,2661.5 1213.5,2678.5 1213.5,2695.5 Z"/></g>
<g><path style="opacity:0.972" fill="#fefffe" d="M 1451.5,2695.5 C 1434.83,2695.5 1418.17,2695.5 1401.5,2695.5C 1381.87,2684.94 1372.37,2668.28 1373,2645.5C 1372.5,2620.17 1372.33,2594.84 1372.5,2569.5C 1377.5,2569.5 1382.5,2569.5 1387.5,2569.5C 1387.33,2596.5 1387.5,2623.5 1388,2650.5C 1390.38,2673.71 1403.21,2685.71 1426.5,2686.5C 1449.79,2685.71 1462.62,2673.71 1465,2650.5C 1465.5,2623.5 1465.67,2596.5 1465.5,2569.5C 1470.17,2569.5 1474.83,2569.5 1479.5,2569.5C 1479.95,2599.87 1479.45,2630.2 1478,2660.5C 1474.94,2676.7 1466.11,2688.37 1451.5,2695.5 Z"/></g>
<g><path style="opacity:0.96" fill="#fefffe" d="M 1615.5,2695.5 C 1610.5,2695.5 1605.5,2695.5 1600.5,2695.5C 1600.5,2657.5 1600.5,2619.5 1600.5,2581.5C 1585.5,2581.5 1570.5,2581.5 1555.5,2581.5C 1555.5,2577.5 1555.5,2573.5 1555.5,2569.5C 1590.5,2569.5 1625.5,2569.5 1660.5,2569.5C 1660.5,2573.5 1660.5,2577.5 1660.5,2581.5C 1645.5,2581.5 1630.5,2581.5 1615.5,2581.5C 1615.5,2619.5 1615.5,2657.5 1615.5,2695.5 Z"/></g>
<g><path style="opacity:0.972" fill="#fefffe" d="M 1814.5,2695.5 C 1797.83,2695.5 1781.17,2695.5 1764.5,2695.5C 1750.19,2688.6 1741.36,2677.27 1738,2661.5C 1736.54,2630.88 1736.04,2600.21 1736.5,2569.5C 1741.17,2569.5 1745.83,2569.5 1750.5,2569.5C 1750.33,2596.17 1750.5,2622.84 1751,2649.5C 1752.92,2673.26 1765.76,2685.59 1789.5,2686.5C 1812.34,2685.82 1825.18,2674.16 1828,2651.5C 1828.5,2624.17 1828.67,2596.84 1828.5,2569.5C 1833.17,2569.5 1837.83,2569.5 1842.5,2569.5C 1842.95,2600.2 1842.45,2630.87 1841,2661.5C 1837.49,2677.16 1828.66,2688.49 1814.5,2695.5 Z"/></g>
<g><path style="opacity:0.979" fill="#fefffe" d="M 2043.5,2695.5 C 2037.83,2695.5 2032.17,2695.5 2026.5,2695.5C 2017.97,2682.94 2009.3,2670.44 2000.5,2658C 1985.5,2657.5 1970.5,2657.33 1955.5,2657.5C 1955.5,2670.17 1955.5,2682.83 1955.5,2695.5C 1950.83,2695.5 1946.17,2695.5 1941.5,2695.5C 1941.5,2653.5 1941.5,2611.5 1941.5,2569.5C 1962.17,2569.33 1982.84,2569.5 2003.5,2570C 2035.77,2576.68 2048.27,2596.18 2041,2628.5C 2036.32,2641.35 2027.49,2650.01 2014.5,2654.5C 2023.93,2668.37 2033.6,2682.04 2043.5,2695.5 Z M 1955.5,2581.5 C 1968.84,2581.33 1982.17,2581.5 1995.5,2582C 2020.88,2584.61 2031.38,2598.44 2027,2623.5C 2024.26,2632.57 2018.43,2638.74 2009.5,2642C 2004.97,2643.63 2000.3,2644.63 1995.5,2645C 1982.17,2645.5 1968.84,2645.67 1955.5,2645.5C 1955.5,2624.17 1955.5,2602.83 1955.5,2581.5 Z"/></g>
<g><path style="opacity:0.958" fill="#fefffe" d="M 2224.5,2695.5 C 2193.83,2695.5 2163.17,2695.5 2132.5,2695.5C 2132.5,2653.5 2132.5,2611.5 2132.5,2569.5C 2162.5,2569.5 2192.5,2569.5 2222.5,2569.5C 2222.5,2573.5 2222.5,2577.5 2222.5,2581.5C 2197.5,2581.5 2172.5,2581.5 2147.5,2581.5C 2147.5,2596.5 2147.5,2611.5 2147.5,2626.5C 2169.5,2626.5 2191.5,2626.5 2213.5,2626.5C 2213.5,2630.83 2213.5,2635.17 2213.5,2639.5C 2191.5,2639.5 2169.5,2639.5 2147.5,2639.5C 2147.5,2654.83 2147.5,2670.17 2147.5,2685.5C 2173.17,2685.5 2198.83,2685.5 2224.5,2685.5C 2224.5,2688.83 2224.5,2692.17 2224.5,2695.5 Z"/></g>
<g><path style="opacity:1" fill="#fefffe" d="M 2435.5,2695.5 C 2430.83,2695.5 2426.17,2695.5 2421.5,2695.5C 2421.5,2653.5 2421.5,2611.5 2421.5,2569.5C 2426.17,2569.5 2430.83,2569.5 2435.5,2569.5C 2435.5,2611.5 2435.5,2653.5 2435.5,2695.5 Z"/></g>
<g><path style="opacity:0.978" fill="#fefffe" d="M 2922.5,2695.5 C 2917.83,2695.5 2913.17,2695.5 2908.5,2695.5C 2908.5,2676.83 2908.5,2658.17 2908.5,2639.5C 2881.83,2639.5 2855.17,2639.5 2828.5,2639.5C 2828.5,2658.17 2828.5,2676.83 2828.5,2695.5C 2823.83,2695.5 2819.17,2695.5 2814.5,2695.5C 2814.5,2653.5 2814.5,2611.5 2814.5,2569.5C 2819.17,2569.5 2823.83,2569.5 2828.5,2569.5C 2828.5,2588.5 2828.5,2607.5 2828.5,2626.5C 2855.17,2626.5 2881.83,2626.5 2908.5,2626.5C 2908.5,2607.5 2908.5,2588.5 2908.5,2569.5C 2913.17,2569.5 2917.83,2569.5 2922.5,2569.5C 2922.5,2611.5 2922.5,2653.5 2922.5,2695.5 Z"/></g>
<g><path style="opacity:0.981" fill="#fefffe" d="M 3113.5,2695.5 C 3083.17,2695.5 3052.83,2695.5 3022.5,2695.5C 3022.5,2653.5 3022.5,2611.5 3022.5,2569.5C 3052.17,2569.5 3081.83,2569.5 3111.5,2569.5C 3111.5,2573.5 3111.5,2577.5 3111.5,2581.5C 3086.5,2581.5 3061.5,2581.5 3036.5,2581.5C 3036.5,2596.5 3036.5,2611.5 3036.5,2626.5C 3058.83,2626.5 3081.17,2626.5 3103.5,2626.5C 3103.5,2630.83 3103.5,2635.17 3103.5,2639.5C 3081.17,2639.5 3058.83,2639.5 3036.5,2639.5C 3036.5,2654.83 3036.5,2670.17 3036.5,2685.5C 3062.17,2685.5 3087.83,2685.5 3113.5,2685.5C 3113.5,2688.83 3113.5,2692.17 3113.5,2695.5 Z"/></g>
<g><path style="opacity:0.957" fill="#fefffe" d="M 3305.5,2695.5 C 3299.83,2695.5 3294.17,2695.5 3288.5,2695.5C 3280.47,2682.62 3271.8,2670.12 3262.5,2658C 3247.84,2657.5 3233.17,2657.33 3218.5,2657.5C 3218.5,2670.17 3218.5,2682.83 3218.5,2695.5C 3213.5,2695.5 3208.5,2695.5 3203.5,2695.5C 3203.5,2653.5 3203.5,2611.5 3203.5,2569.5C 3224.5,2569.33 3245.5,2569.5 3266.5,2570C 3296.79,2576.39 3309.29,2594.89 3304,2625.5C 3299.66,2639.84 3290.49,2649.67 3276.5,2655C 3286.54,2668.26 3296.21,2681.76 3305.5,2695.5 Z M 3218.5,2581.5 C 3231.5,2581.33 3244.5,2581.5 3257.5,2582C 3286.19,2586.04 3296.03,2601.87 3287,2629.5C 3279.68,2639.25 3269.85,2644.41 3257.5,2645C 3244.5,2645.5 3231.5,2645.67 3218.5,2645.5C 3218.5,2624.17 3218.5,2602.83 3218.5,2581.5 Z"/></g>
<g><path style="opacity:0.979" fill="#fefffe" d="M 3487.5,2695.5 C 3456.83,2695.5 3426.17,2695.5 3395.5,2695.5C 3395.5,2653.5 3395.5,2611.5 3395.5,2569.5C 3425.17,2569.5 3454.83,2569.5 3484.5,2569.5C 3484.5,2573.5 3484.5,2577.5 3484.5,2581.5C 3459.5,2581.5 3434.5,2581.5 3409.5,2581.5C 3409.5,2596.5 3409.5,2611.5 3409.5,2626.5C 3431.83,2626.5 3454.17,2626.5 3476.5,2626.5C 3476.5,2630.83 3476.5,2635.17 3476.5,2639.5C 3454.17,2639.5 3431.83,2639.5 3409.5,2639.5C 3409.5,2654.83 3409.5,2670.17 3409.5,2685.5C 3435.5,2685.5 3461.5,2685.5 3487.5,2685.5C 3487.5,2688.83 3487.5,2692.17 3487.5,2695.5 Z"/></g>
</svg>
